<svg width="40" height="40" viewBox="0 0 40 40" fill="none" xmlns="http://www.w3.org/2000/svg">
<g id="vuesax/outline/textalign-right">
<g id="vuesax/outline/textalign-right_2">
<g id="textalign-right">
<g id="Group 1171274769">
<path id="Vector" d="M34.584 12.5H10.834C10.1507 12.5 9.58398 11.9333 9.58398 11.25C9.58398 10.5667 10.1507 10 10.834 10L34.584 10C35.2673 10 35.834 10.5667 35.834 11.25C35.834 11.9333 35.2673 12.5 34.584 12.5Z" fill="white"/>
<path id="Vector_2" d="M34.5851 20.833H18.8018C18.1184 20.833 17.5518 20.2663 17.5518 19.583C17.5518 18.8997 18.1184 18.333 18.8018 18.333H34.5851C35.2684 18.333 35.8351 18.8997 35.8351 19.583C35.8351 20.2663 35.2684 20.833 34.5851 20.833Z" fill="white"/>
<path id="Vector_3" d="M34.584 29.1665H10.834C10.1507 29.1665 9.58398 28.5998 9.58398 27.9165C9.58398 27.2332 10.1507 26.6665 10.834 26.6665L34.584 26.6665C35.2673 26.6665 35.834 27.2332 35.834 27.9165C35.834 28.5998 35.2673 29.1665 34.584 29.1665Z" fill="white"/>
</g>
</g>
</g>
</g>
</svg>
